<svg width="80" height="40" viewBox="0 0 80 40" fill="none" xmlns="http://www.w3.org/2000/svg">
<path d="M59.99 40H20.0067L20 37.9233C20 33.7267 20.3333 31.3033 25.2933 30.1567C30.9067 28.86 36.44 27.7033 33.7767 22.7933C25.89 8.25 31.53 0 39.9967 0C48.3 0 54.0833 7.94333 46.2167 22.7967C43.6333 27.6767 48.97 28.8367 54.7 30.16C59.6667 31.3067 59.9967 33.7333 59.9967 37.9367L59.99 40ZM76.0267 32.62C71.7267 31.6267 67.7267 30.7567 69.6633 27.0967C75.56 15.9567 71.2267 10 64.9967 10C60.78 10 57.5033 12.7233 57.5033 17.7467C57.5033 30.7567 65.0633 23.6467 64.99 40H79.9933L80 38.4567C80 35.3033 79.7533 33.48 76.0267 32.62ZM0.00666667 40H15.01C14.94 23.6467 22.4967 30.76 22.4967 17.7467C22.4967 12.7233 19.22 10 15.0033 10C8.77333 10 4.44 15.9567 10.34 27.0967C12.2767 30.76 8.27667 31.6267 3.97667 32.62C0.246667 33.48 0 35.3033 0 38.4567L0.00666667 40Z" fill="#535C3E"/>
</svg>
