<svg width="60" height="60" viewBox="0 0 60 60" fill="none" xmlns="http://www.w3.org/2000/svg">
<g clip-path="url(#clip0_3_21)">
<path d="M30 0C13.4325 0 0 13.4325 0 30C0 46.5675 13.4325 60 30 60C46.5675 60 60 46.5675 60 30C60 13.4325 46.5675 0 30 0ZM30 45.625C28.275 45.625 26.875 44.225 26.875 42.5C26.875 40.775 28.275 39.375 30 39.375C31.7275 39.375 33.125 40.775 33.125 42.5C33.125 44.225 31.7275 45.625 30 45.625ZM34.9025 30.805C32.6425 33.2425 32.535 34.59 32.565 36.25H27.5525C27.535 32.5625 27.6025 30.9375 31.13 27.58C32.5625 26.22 33.6925 25.1425 33.535 23.0275C33.39 21.015 31.71 19.9625 30.1225 19.9625C28.35 19.9625 26.2775 21.28 26.2775 24.995H21.2525C21.2525 18.995 24.775 15.12 30.2275 15.12C32.8175 15.12 35.0825 15.9675 36.6025 17.5075C38.0275 18.9525 38.765 20.9375 38.7375 23.2525C38.6975 26.71 36.595 28.98 34.9025 30.805Z" fill="#43AEFF"/>
</g>
<defs>
<clipPath id="clip0_3_21">
<rect width="60" height="60" fill="white"/>
</clipPath>
</defs>
</svg>
