<svg width="60" height="60" viewBox="0 0 60 60" fill="none" xmlns="http://www.w3.org/2000/svg">
<g clip-path="url(#clip0_3_54)">
<path d="M28.3225 49C27.86 49.63 27.1475 49.9625 26.425 49.9625C25.94 49.9625 25.4525 49.8125 25.03 49.505C23.9825 48.7325 23.7575 47.265 24.525 46.2175L27.2175 42.5775C27.9875 41.535 29.4575 41.3075 30.505 42.08C31.5575 42.845 31.7825 44.3175 31.0075 45.3625L28.3225 49ZM26.26 41.9025C27.03 40.8575 26.8025 39.385 25.7575 38.6125C24.705 37.8425 23.2375 38.0725 22.465 39.12L19.7825 42.7425C19.01 43.79 19.24 45.265 20.2875 46.035C21.33 46.8025 22.805 46.58 23.575 45.53L26.26 41.9025ZM21.51 38.4325C22.2825 37.39 22.0525 35.915 21.0025 35.145C19.9575 34.3775 18.485 34.605 17.7175 35.65L15.01 39.3025C14.24 40.35 14.4875 41.79 15.5325 42.5625C16.585 43.3325 18.0325 43.135 18.8025 42.0875L21.51 38.4325ZM16.765 34.9675C17.535 33.92 17.3125 32.45 16.2575 31.68C15.21 30.9075 13.74 31.135 12.97 32.1825L10.2825 35.81C9.5125 36.855 9.74 38.33 10.7875 39.0975C11.835 39.865 13.3075 39.6425 14.075 38.5925L16.765 34.9675ZM60 13.8725C60 13.8725 56.1125 14.625 53.3325 15.07C47.9675 15.93 42.9725 14.03 37.43 11.165C36.3175 10.5925 35.0375 10 33.785 10C32.6325 10 31.5025 10.5225 30.555 11.5975C27.14 15.465 25.155 18.885 21.0925 21.2575C19.09 22.4275 21.4425 26.0925 25.7425 24.585C27.9375 23.815 30.0825 22.3475 32.5075 20.3925C34.4125 18.855 35.5575 19.0825 37.205 20.73C40.3 23.825 50.715 34.1075 50.715 34.1075C54.0075 32.0775 56.77 30.8275 59.9975 29.6275L60 13.8725ZM33.69 45.5275C33.295 46.675 32.145 48.03 31.3075 49.165C32.05 49.7525 32.8275 50 33.5125 50C35.305 50 36.4825 48.3225 34.8675 46.705L33.69 45.5275ZM49.955 36.87C47.28 34.2325 38.125 25.2025 35.4475 22.5875C35.035 22.185 34.395 22.1375 33.9275 22.4775C32.33 23.6375 28.7225 26.19 26.5675 26.9475C22.355 28.4225 18.78 26.3925 18.0125 23.55C17.5325 21.77 18.245 20.0225 19.83 19.0975C22.35 17.625 23.9725 15.66 25.97 13.19C24.2325 11.8425 22.595 11.36 20.9925 11.36C16.7275 11.36 12.7 14.775 7.6525 14.4375C4.22 14.2125 0 13.43 0 13.43V29.2625C3.69 30.065 6.1375 30.4225 9.8 32.26L10.955 30.7C11.865 29.46 13.3275 28.72 14.865 28.72C17.04 28.72 18.92 30.165 19.5175 32.19C21.895 32.19 23.685 33.695 24.2625 35.6575C26.3275 35.58 28.365 36.955 29.005 39.12C31.9325 39.12 34.0475 41.42 33.9575 44.1375L36.8775 47.0575C37.795 47.9775 39.285 47.975 40.205 47.0575C41.125 46.1375 41.125 44.6475 40.205 43.7275L35.99 39.51C35.44 38.96 36.2725 38.1275 36.8225 38.6775L41.9025 43.76C42.8225 44.68 44.31 44.68 45.23 43.76C46.15 42.84 46.15 41.3525 45.23 40.4325L38.9775 34.1775C38.425 33.6325 39.26 32.795 39.81 33.345L46.56 40.0975C47.48 41.0175 48.9675 41.0175 49.8875 40.0975C50.7825 39.2075 50.79 37.7925 49.955 36.87Z" fill="#885F21"/>
</g>
<defs>
<clipPath id="clip0_3_54">
<rect width="60" height="60" fill="white"/>
</clipPath>
</defs>
</svg>
